<?xml version="1.0" encoding="utf-8"?>
<!-- Generator: Adobe Illustrator 21.0.2, SVG Export Plug-In . SVG Version: 6.00 Build 0)  -->
<svg version="1.1" id="Layer_1" xmlns="http://www.w3.org/2000/svg" xmlns:xlink="http://www.w3.org/1999/xlink" x="0px" y="0px"
	 viewBox="0 0 217.3 58.8" style="enable-background:new 0 0 217.3 58.8;" xml:space="preserve">
<style type="text/css">
	.st0{fill:#15467A;}
	.st1{fill:#B8922F;}
</style>
<title>logo</title>
<path class="st0" d="M58.8,5.5C35.5,6.3,14.6,14.1,0,26.2h16.9C25.9,15.6,41,7.9,58.8,5.5"/>
<path class="st1" d="M79.4,0C67.6,0,55.9,1.6,44.5,5C50.2,4,56,3.5,61.7,3.5c24.6,0,46.4,8.9,60.1,22.7h30.5
	C135.2,10.2,108.9,0,79.4,0"/>
<path class="st0" d="M24.1,39.3v0.5c0,1.1,0.3,1.9,1.5,1.9c0.8,0,1.5-0.6,1.6-1.4c0-0.1,0-0.2,0-0.3c0-3.1-6.3-1.4-6.3-6.7
	c0-2.3,1.2-4.2,4.8-4.2s4.7,1.7,4.7,3.9v0.3H27c0-0.5-0.1-1-0.3-1.5c-0.2-0.3-0.6-0.5-1-0.5c-0.9,0-1.4,0.5-1.4,1.5
	c0,3,6.3,1.5,6.3,6.5c0,3.2-1.9,4.5-5,4.5c-2.5,0-4.8-0.7-4.8-3.7v-0.9L24.1,39.3z"/>
<path class="st0" d="M32.5,35.1h-1.4v-2.2h1.4v-3.2h3.3v3.2h1.5v2.2h-1.5v5.5c0,0.8,0.3,1,1.1,1c0.2,0,0.3,0,0.5,0v2.2
	c-0.6,0.1-1.3,0.1-1.9,0.1c-2.3,0-3-0.4-3-2.9L32.5,35.1z"/>
<path class="st0" d="M38.5,32.8h3.2v1.5l0,0c0.4-1.1,1.5-1.8,2.7-1.8c0.2,0,0.4,0,0.5,0v3c-0.3-0.1-0.6-0.1-0.9-0.1
	c-1.3,0-2.2,0.5-2.2,2v6.2h-3.3V32.8z"/>
<path class="st0" d="M54.9,43.7h-3.2v-1.3l0,0c-0.5,1-1.6,1.7-2.7,1.6c-1.9,0-2.9-0.9-2.9-3v-8.2h3.3v7.4c0,0.8,0.3,1.2,1,1.2
	s1.2-0.5,1.2-1.5v-7.1h3.3V43.7z"/>
<path class="st0" d="M62.2,36.9c0-1.6-0.4-2.2-1.2-2.2c-1.1,0-1.2,1.4-1.2,3.6c0,2.4,0.1,3.6,1.2,3.6s1.2-0.7,1.2-2.6h3.1
	c0,3.3-1.4,4.7-4.4,4.7c-4.2,0-4.5-2.9-4.5-6.1c0-3,0.9-5.3,4.5-5.3s4.4,1.8,4.4,4.4L62.2,36.9z"/>
<path class="st0" d="M67.1,35.1h-1.4v-2.2h1.4v-3.2h3.3v3.2h1.5v2.2h-1.5v5.5c0,0.8,0.3,1,1.1,1c0.2,0,0.3,0,0.5,0v2.2
	c-0.6,0.1-1.3,0.1-1.9,0.1c-2.3,0-3-0.4-3-2.9L67.1,35.1z"/>
<path class="st0" d="M81.9,43.7h-3.2v-1.3l0,0c-0.5,1-1.6,1.7-2.7,1.6c-1.9,0-2.9-0.9-2.9-3v-8.2h3.3v7.4c0,0.8,0.3,1.2,1,1.2
	s1.2-0.5,1.2-1.5v-7.1h3.3L81.9,43.7z"/>
<path class="st0" d="M83.8,32.8H87v1.5l0,0c0.4-1.1,1.5-1.8,2.7-1.8c0.2,0,0.4,0,0.5,0v3c-0.3-0.1-0.6-0.1-0.9-0.1
	c-1.3,0-2.2,0.5-2.2,2v6.2h-3.3V32.8z"/>
<path class="st0" d="M94.1,38.8v0.7c0,1.7,0.2,2.5,1.2,2.5s1.1-0.6,1.2-2h3.1c-0.1,2.7-1.6,4-4.3,4c-4.2,0-4.5-2.9-4.5-6.1
	c0-3,0.9-5.3,4.5-5.3c4.1,0,4.4,2.5,4.4,6.2L94.1,38.8z M96.5,36.9c0-1.5-0.2-2.3-1.1-2.3c-1.1,0-1.3,0.9-1.3,2.3H96.5z"/>
<path class="st0" d="M106.6,42.4L106.6,42.4c-0.3,1-1.3,1.7-2.4,1.6c-2.2,0-3.4-1.6-3.4-5.6c0-3.4,0.5-5.8,3.2-5.8
	c1-0.1,2,0.5,2.5,1.4l0,0v-4.6h3.3v14.3h-3.2L106.6,42.4z M105.3,34.9c-1.2,0-1.3,1.3-1.3,3.3c0,1.7,0,3.4,1.3,3.4
	c1,0,1.2-1.2,1.2-3.3C106.5,36.4,106.4,34.9,105.3,34.9"/>
<path class="st0" d="M119.9,39.3v0.5c0,1.1,0.3,1.9,1.5,1.9c0.8,0,1.5-0.6,1.6-1.4c0-0.1,0-0.2,0-0.3c0-3.1-6.3-1.4-6.3-6.7
	c0-2.3,1.2-4.2,4.8-4.2s4.7,1.7,4.7,3.9v0.3h-3.3c0-0.5-0.1-1-0.3-1.5c-0.2-0.3-0.6-0.5-1-0.5c-0.9,0-1.4,0.5-1.4,1.5
	c0,3,6.3,1.5,6.3,6.5c0,3.2-1.8,4.5-5,4.5c-2.5,0-4.8-0.7-4.8-3.7v-0.9L119.9,39.3z"/>
<path class="st0" d="M130.9,38.8v0.7c0,1.7,0.2,2.5,1.2,2.5s1.1-0.6,1.2-2h3.1c-0.1,2.7-1.6,4-4.3,4c-4.2,0-4.5-2.9-4.5-6.1
	c0-3,0.9-5.3,4.5-5.3c4.1,0,4.4,2.5,4.4,6.2L130.9,38.8z M133.3,36.9c0-1.5-0.2-2.3-1.1-2.3c-1.1,0-1.3,0.9-1.3,2.3H133.3z"/>
<path class="st0" d="M138.3,35.1h-1.4v-2.2h1.4v-3.2h3.3v3.2h1.5v2.2h-1.5v5.5c0,0.8,0.3,1,1.1,1c0.2,0,0.3,0,0.5,0v2.2
	c-0.6,0.1-1.3,0.1-1.9,0.1c-2.3,0-3-0.4-3-2.9L138.3,35.1z"/>
<path class="st0" d="M144.7,35.1h-1.4v-2.2h1.4v-3.2h3.3v3.2h1.5v2.2H148v5.5c0,0.8,0.3,1,1.1,1c0.2,0,0.3,0,0.5,0v2.2
	c-0.6,0.1-1.3,0.1-1.9,0.1c-2.3,0-3-0.4-3-2.9L144.7,35.1z"/>
<rect x="150.8" y="29.4" class="st0" width="3.3" height="14.3"/>
<path class="st0" d="M159,38.8v0.7c0,1.7,0.2,2.5,1.2,2.5s1.1-0.6,1.2-2h3.1c-0.1,2.7-1.6,4-4.3,4c-4.2,0-4.5-2.9-4.5-6.1
	c0-3,0.9-5.3,4.5-5.3c4.1,0,4.4,2.5,4.4,6.2L159,38.8z M161.4,36.9c0-1.5-0.2-2.3-1.1-2.3c-1.1,0-1.3,0.9-1.3,2.3H161.4z"/>
<path class="st0" d="M166.1,32.8h3.2v1.3l0,0c0.5-1,1.6-1.6,2.7-1.6c1.2-0.2,2.3,0.5,2.7,1.7c0.5-1.1,1.6-1.7,2.8-1.7
	c1.9,0,2.9,0.9,2.9,3v8.1H177v-7.4c0-0.8-0.4-1.2-1-1.2s-1.2,0.5-1.2,1.5v7.1h-3.3v-7.4c0-0.8-0.4-1.2-1-1.2s-1.2,0.5-1.2,1.5v7.1
	H166L166.1,32.8z"/>
<path class="st0" d="M185.2,38.8v0.7c0,1.7,0.2,2.5,1.2,2.5s1.1-0.6,1.2-2h3.1c-0.1,2.7-1.6,4-4.3,4c-4.2,0-4.5-2.9-4.5-6.1
	c0-3,0.9-5.3,4.5-5.3c4.1,0,4.4,2.5,4.4,6.2L185.2,38.8z M187.6,36.9c0-1.5-0.2-2.3-1.1-2.3c-1.1,0-1.3,0.9-1.3,2.3H187.6z"/>
<path class="st0" d="M192.1,32.8h3.2v1.3l0,0c0.5-1,1.6-1.6,2.7-1.6c1.9,0,2.9,0.9,2.9,3v8.1h-3.3v-7.4c0-0.8-0.4-1.2-1-1.2
	s-1.2,0.5-1.2,1.5v7.1h-3.3L192.1,32.8z"/>
<path class="st0" d="M203.2,35.1h-1.4v-2.2h1.4v-3.2h3.3v3.2h1.5v2.2h-1.5v5.5c0,0.8,0.3,1,1.1,1c0.2,0,0.3,0,0.5,0v2.2
	c-0.6,0.1-1.3,0.1-1.9,0.1c-2.3,0-3-0.4-3-2.9L203.2,35.1z"/>
<path class="st0" d="M211.8,40.2c0,0.4,0.1,0.8,0.2,1.2c0.2,0.3,0.6,0.5,1,0.5c0.6,0.1,1.1-0.4,1.2-0.9c0-0.1,0-0.1,0-0.2
	c0-0.5-0.2-1-1.3-1.3c-2.7-0.9-4-1.4-4-3.7s1.6-3.3,4.2-3.3c3.1,0,4,1.5,4,3V36h-3v-0.2c0-0.9-0.4-1.2-1.1-1.2c-0.9,0-1.1,0.4-1.1,1
	c0,1.9,5.3,0.6,5.3,4.8c0,2.2-1.5,3.5-4.2,3.5c-3,0-4.2-1.1-4.2-3.2v-0.5L211.8,40.2z"/>
<polygon class="st0" points="43.9,15.7 45.1,15.7 51.4,24.7 51.5,24.7 51.5,15.7 52.5,15.7 52.5,26.4 51.3,26.4 45,17.4 44.9,17.4 
	44.9,26.4 43.9,26.4 "/>
<path class="st0" d="M54.4,21c0.1-1.8,1.4-2.6,3.2-2.6c1.4,0,2.9,0.4,2.9,2.5V25c0,0.3,0.2,0.5,0.4,0.6c0,0,0.1,0,0.1,0
	c0.1,0,0.2,0,0.3-0.1v0.8c-0.2,0-0.4,0.1-0.6,0.1c-1,0-1.1-0.5-1.1-1.3l0,0c-0.6,1-1.7,1.7-2.9,1.6c-1.5,0-2.7-0.7-2.7-2.2
	c0-2.2,2.2-2.2,4.2-2.5c0.8-0.1,1.2-0.2,1.2-1c0-1.3-0.9-1.6-2.1-1.6s-2.1,0.5-2.1,1.8L54.4,21z M59.5,22.1L59.5,22.1
	c-0.1,0.2-0.5,0.3-0.8,0.3c-1.6,0.3-3.7,0.3-3.7,1.8c0.1,0.9,0.8,1.6,1.7,1.5c0,0,0,0,0,0c1.4,0.1,2.6-0.9,2.7-2.3
	c0-0.1,0-0.1,0-0.2L59.5,22.1z"/>
<path class="st0" d="M64,18.7h1.6v0.8H64v5.2c0,0.6,0.1,1,0.8,1c0.3,0,0.6,0,0.8,0v0.8c-0.3,0-0.6,0-0.9,0c-1.3,0-1.8-0.5-1.8-1.7
	v-5.3h-1.4v-0.8H63v-2.3h1V18.7z"/>
<path class="st0" d="M67,15.7h1v1.5h-1V15.7z M67,18.7h1v7.7h-1V18.7z"/>
<path class="st0" d="M76.9,22.5c0,2.2-1.3,4.1-3.7,4.1s-3.7-1.9-3.7-4.1s1.3-4.1,3.7-4.1S76.9,20.3,76.9,22.5 M70.4,22.5
	c0,1.6,0.9,3.3,2.8,3.3s2.8-1.6,2.8-3.3s-0.9-3.3-2.8-3.3S70.4,20.9,70.4,22.5"/>
<path class="st0" d="M78.3,18.7h1V20l0,0c0.5-1,1.4-1.6,2.5-1.5c2.2,0,2.9,1.1,2.9,3v5h-1v-4.9c0-1.3-0.4-2.3-2-2.3
	c-1.4,0-2.5,1.1-2.5,2.4c0,0.1,0,0.1,0,0.2v4.5h-1L78.3,18.7z"/>
<path class="st0" d="M86.4,21c0.1-1.8,1.4-2.6,3.2-2.6c1.4,0,2.9,0.4,2.9,2.5V25c0,0.3,0.2,0.5,0.4,0.6c0,0,0.1,0,0.1,0
	c0.1,0,0.2,0,0.3-0.1v0.8c-0.2,0-0.4,0.1-0.6,0.1c-1,0-1.1-0.5-1.1-1.3l0,0c-0.6,1-1.7,1.7-2.9,1.6c-1.4,0-2.7-0.7-2.7-2.2
	c0-2.2,2.2-2.2,4.2-2.5c0.8-0.1,1.2-0.2,1.2-1c0-1.3-0.9-1.6-2.1-1.6s-2.1,0.5-2.1,1.8L86.4,21z M91.6,22.1L91.6,22.1
	c-0.1,0.2-0.6,0.3-0.8,0.3c-1.6,0.3-3.7,0.3-3.7,1.8c0.1,0.9,0.8,1.6,1.7,1.5c0,0,0,0,0,0c1.4,0.1,2.6-0.9,2.7-2.3
	c0-0.1,0-0.1,0-0.2L91.6,22.1z"/>
<rect x="94.5" y="15.7" class="st0" width="1" height="10.7"/>
<polygon class="st0" points="91.5,47.9 100.2,47.9 100.2,48.7 96.4,48.7 96.4,58.5 95.3,58.5 95.3,48.7 91.5,48.7 "/>
<path class="st0" d="M99.6,50.8h0.9v1.8l0,0c0.5-1.2,1.7-2,3-1.9v0.9c-1.5-0.1-2.8,0.9-2.9,2.4c0,0.1,0,0.2,0,0.3v4.1h-1L99.6,50.8z
	"/>
<path class="st0" d="M104.4,53.2c0.1-1.8,1.4-2.6,3.2-2.6c1.4,0,2.9,0.4,2.9,2.5v4.1c0,0.3,0.2,0.5,0.4,0.6c0,0,0.1,0,0.1,0
	c0.1,0,0.2,0,0.3-0.1v0.8c-0.2,0-0.4,0.1-0.6,0.1c-1,0-1.1-0.5-1.1-1.3l0,0c-0.6,1-1.7,1.7-2.9,1.6c-1.4,0-2.7-0.7-2.7-2.2
	c0-2.2,2.2-2.2,4.2-2.5c0.8-0.1,1.2-0.2,1.2-1c0-1.3-0.9-1.6-2.1-1.6s-2.1,0.5-2.1,1.8L104.4,53.2z M109.5,54.3L109.5,54.3
	c-0.1,0.2-0.6,0.3-0.8,0.3c-1.6,0.3-3.7,0.3-3.7,1.8c0,0.9,0.8,1.6,1.7,1.6c0,0,0,0,0,0c1.4,0.1,2.6-0.9,2.7-2.3c0,0,0-0.1,0-0.1
	L109.5,54.3z"/>
<path class="st0" d="M119.3,58.5h-0.9v-1.5l0,0c-0.5,1-1.6,1.7-2.8,1.7c-2.4,0-3.6-1.9-3.6-4.1s1.2-4.1,3.6-4.1
	c1.2-0.1,2.3,0.6,2.7,1.7l0,0v-4.4h1L119.3,58.5z M115.6,58c2.1,0,2.8-1.7,2.8-3.3s-0.7-3.3-2.8-3.3c-1.8,0-2.6,1.7-2.6,3.3
	S113.8,58,115.6,58"/>
<path class="st0" d="M121.8,54.9c0,1.4,0.8,3,2.6,3c1.2,0.1,2.3-0.8,2.5-2h1c-0.2,1.7-1.7,2.9-3.4,2.8c-2.5,0-3.6-1.9-3.6-4.1
	c0-2,1.1-4.1,3.6-4.1s3.6,2.2,3.5,4.3L121.8,54.9z M126.9,54.1c0.1-1.4-1-2.7-2.5-2.7c0,0,0,0,0,0c-1.5,0.1-2.6,1.3-2.6,2.8H126.9z"
	/>
<path class="st0" d="M136.8,47.9h1.2l4.3,10.7h-1.1l-1.3-3.3h-5l-1.3,3.3h-1.1L136.8,47.9z M135.1,54.3h4.3l-2.1-5.5L135.1,54.3z"/>
<path class="st0" d="M147.7,53.1c0-1.2-1-1.7-2.1-1.7c-0.9,0-1.9,0.3-1.9,1.3c0,0.8,1,1.1,1.6,1.3l1.3,0.3c1.1,0.2,2.2,0.8,2.2,2.1
	c0,1.7-1.7,2.3-3.2,2.3c-1.8,0-3.1-0.8-3.2-2.7h1c0,1.1,1,2,2.2,2c0,0,0.1,0,0.1,0c0.9,0,2.2-0.4,2.2-1.5c0-0.9-0.9-1.2-1.7-1.4
	l-1.3-0.3c-1.2-0.3-2.2-0.8-2.2-2.1c0-1.6,1.6-2.2,3-2.2c1.6,0,2.8,0.8,2.9,2.5L147.7,53.1z"/>
<path class="st0" d="M155.1,53.1c0-1.2-1-1.7-2.1-1.7c-0.9,0-1.9,0.3-1.9,1.3c0,0.8,1,1.1,1.6,1.3l1.3,0.3c1.1,0.2,2.2,0.8,2.2,2.1
	c0,1.7-1.7,2.3-3.2,2.3c-1.8,0-3.1-0.8-3.2-2.7h1c0,1.1,1,2,2.2,2c0,0,0.1,0,0.1,0c0.9,0,2.2-0.4,2.2-1.5c0-0.9-0.9-1.2-1.7-1.4
	l-1.2-0.3c-1.2-0.3-2.2-0.8-2.2-2.1c0-1.6,1.6-2.2,3-2.2c1.6,0,2.8,0.8,2.9,2.5L155.1,53.1z"/>
<path class="st0" d="M164.8,54.7c0,2.2-1.3,4.1-3.7,4.1s-3.7-1.9-3.7-4.1s1.3-4.1,3.7-4.1S164.8,52.5,164.8,54.7 M158.3,54.7
	c0,1.6,0.9,3.3,2.8,3.3s2.8-1.6,2.8-3.3s-0.9-3.3-2.8-3.3S158.3,53,158.3,54.7"/>
<path class="st0" d="M171.8,53.2c-0.1-1.1-1.1-1.9-2.2-1.8c-1.9,0-2.8,1.6-2.8,3.3s0.9,3.3,2.8,3.3c1.2,0,2.2-1,2.3-2.2h1
	c-0.1,1.7-1.5,3-3.3,3c-2.4,0-3.7-1.9-3.7-4.1s1.3-4.1,3.7-4.1c1.6-0.2,3,1,3.2,2.6c0,0,0,0,0,0L171.8,53.2z"/>
<path class="st0" d="M174.2,47.9h1v1.5h-1V47.9z M174.2,50.9h1v7.7h-1V50.9z"/>
<path class="st0" d="M176.9,53.2c0.1-1.8,1.4-2.6,3.2-2.6c1.4,0,2.9,0.4,2.9,2.5v4.1c0,0.3,0.2,0.5,0.4,0.6c0,0,0.1,0,0.1,0
	c0.1,0,0.2,0,0.3-0.1v0.8c-0.2,0-0.4,0.1-0.6,0.1c-1,0-1.1-0.5-1.1-1.3l0,0c-0.6,1-1.7,1.7-2.9,1.6c-1.4,0-2.6-0.7-2.6-2.2
	c0-2.2,2.2-2.2,4.2-2.5c0.8-0.1,1.2-0.2,1.2-1c0-1.3-0.9-1.6-2.1-1.6s-2.1,0.5-2.1,1.8L176.9,53.2z M182.1,54.3L182.1,54.3
	c-0.1,0.2-0.6,0.3-0.8,0.3c-1.6,0.3-3.7,0.3-3.7,1.8c0,0.9,0.8,1.6,1.7,1.6c0,0,0,0,0,0c1.4,0.1,2.6-0.9,2.7-2.3c0,0,0-0.1,0-0.1
	V54.3z"/>
<path class="st0" d="M186.5,50.8h1.6v0.8h-1.6v5.2c0,0.6,0.1,1,0.8,1c0.3,0,0.5,0,0.8,0v0.8c-0.3,0-0.6,0-0.9,0
	c-1.3,0-1.7-0.4-1.7-1.7v-5.3h-1.4v-0.8h1.4v-2.3h1L186.5,50.8z"/>
<path class="st0" d="M189.5,47.9h1v1.5h-1V47.9z M189.5,50.9h1v7.7h-1V50.9z"/>
<path class="st0" d="M199.4,54.7c0,2.2-1.3,4.1-3.7,4.1s-3.7-1.9-3.7-4.1s1.3-4.1,3.7-4.1S199.4,52.5,199.4,54.7 M192.9,54.7
	c0,1.6,0.9,3.3,2.8,3.3s2.8-1.6,2.8-3.3s-0.9-3.3-2.8-3.3S192.9,53,192.9,54.7"/>
<path class="st0" d="M200.8,50.8h1v1.3l0,0c0.5-1,1.4-1.6,2.5-1.5c2.2,0,2.9,1.1,2.9,3v5h-1v-4.9c0-1.3-0.4-2.3-2-2.3
	c-1.4,0-2.5,1.1-2.5,2.5c0,0.1,0,0.1,0,0.2v4.5h-1L200.8,50.8z"/>
<g>
	<path class="st0" d="M212.6,46c0.6,0,1.2,0.2,1.7,0.5c0.6,0.3,1,0.7,1.3,1.3c0.3,0.6,0.5,1.1,0.5,1.7c0,0.6-0.2,1.2-0.5,1.7
		c-0.3,0.6-0.7,1-1.3,1.3c-0.6,0.3-1.1,0.5-1.7,0.5c-0.6,0-1.2-0.2-1.7-0.5c-0.6-0.3-1-0.7-1.3-1.3c-0.3-0.6-0.5-1.1-0.5-1.7
		c0-0.6,0.2-1.2,0.5-1.7c0.3-0.6,0.7-1,1.3-1.3C211.5,46.2,212.1,46,212.6,46z M212.6,46.6c-0.5,0-1,0.1-1.4,0.4s-0.8,0.6-1.1,1.1
		s-0.4,1-0.4,1.5c0,0.5,0.1,1,0.4,1.4c0.3,0.5,0.6,0.8,1.1,1.1c0.5,0.3,0.9,0.4,1.4,0.4c0.5,0,1-0.1,1.4-0.4
		c0.5-0.3,0.8-0.6,1.1-1.1c0.3-0.5,0.4-0.9,0.4-1.4c0-0.5-0.1-1-0.4-1.5c-0.3-0.5-0.6-0.8-1.1-1.1C213.6,46.7,213.1,46.6,212.6,46.6
		z M211.1,51.4v-3.8h1.3c0.4,0,0.8,0,1,0.1s0.4,0.2,0.5,0.4c0.1,0.2,0.2,0.4,0.2,0.5c0,0.3-0.1,0.5-0.3,0.7s-0.5,0.3-0.8,0.3
		c0.1,0.1,0.2,0.1,0.3,0.2c0.2,0.1,0.3,0.4,0.6,0.7l0.5,0.7h-0.7l-0.3-0.6c-0.3-0.5-0.5-0.8-0.6-0.9c-0.1-0.1-0.3-0.1-0.5-0.1h-0.4
		v1.6H211.1z M211.7,49.3h0.7c0.4,0,0.6-0.1,0.7-0.2c0.1-0.1,0.2-0.2,0.2-0.4c0-0.1,0-0.2-0.1-0.3s-0.1-0.2-0.3-0.2
		s-0.3-0.1-0.6-0.1h-0.7V49.3z"/>
</g>
</svg>
