<svg id="Layer_1" data-name="Layer 1" xmlns="http://www.w3.org/2000/svg" viewBox="0 0 193.21 125.4"><defs><style>.cls-1{fill:none;stroke:#fff;stroke-miterlimit:10;stroke-width:3px;}</style></defs><title>memberpage-icon</title><path class="cls-1" d="M98.28,44.76,90.48,37s-8.73,4.64-21.37-6.87C81.74,41.6,90.48,37,90.48,37l7.8,7.8h0l4.12,4.12,8.77,8.77a8.69,8.69,0,0,0,12,.43,8.46,8.46,0,0,0,.19-12.14l-15-15h0l-6-5.72L82,5A12.06,12.06,0,0,0,73.47,1.5H59.71A12.06,12.06,0,0,0,51.21,5L23.27,32.76a12.06,12.06,0,0,0,0,17.1L58.45,84.94a7.22,7.22,0,0,1,.91-1.2Z"/><polygon class="cls-1" points="98.99 120.53 124.19 95.33 136.52 83 98.99 120.53"/><path class="cls-1" d="M82.75,5.78l19.69,19.47,6,5.85,9.52-9.59L108.42,31l15,14.95a8.45,8.45,0,0,1-.18,12.13,8.69,8.69,0,0,1-12-.43l-8.78-8.78,5.44,5.44L69.12,93a7,7,0,0,0-.34,9.61,6.76,6.76,0,0,0,9.71.15L117.4,63.88,78.68,102.6a7,7,0,0,0-.35,9.61,6.76,6.76,0,0,0,9.71.15L127,73.44,88.24,112.16a7,7,0,0,0-.35,9.61,6.76,6.76,0,0,0,9.71.15l26.59-26.59L99,120.53,136.52,83,124.19,95.33l45.76-45.54a12.05,12.05,0,0,0,.05-17C161.37,24.06,148.39,11,142.08,4.9a12,12,0,0,0-8.4-3.4h-14.2A12.06,12.06,0,0,0,111,5l-14.5,14.5L111.84,4.15"/><polygon class="cls-1" points="98.28 44.76 102.4 48.87 98.28 44.76 98.28 44.76"/><path class="cls-1" d="M102.4,48.87l-4.12-4.12L59.36,83.68a6.77,6.77,0,0,0-.91,1.14l.55.55-.55-.55a6.76,6.76,0,0,0,10.47,8.42l38.92-38.92Z"/></svg>