<svg id="Layer_1" data-name="Layer 1" xmlns="http://www.w3.org/2000/svg" viewBox="0 0 193.21 125.4"><defs><style>.cls-1{fill:none;stroke:#fff;stroke-linecap:round;stroke-linejoin:round;stroke-width:3px;}</style></defs><title>memberpage-icon</title><path class="cls-1" d="M144.82,123.9H48.68a12.75,12.75,0,0,1-12.75-12.75V1.5h96.42V112.55"/><path class="cls-1" d="M132.35,42.85h24.94a0,0,0,0,1,0,0V114.8a9.1,9.1,0,0,1-9.1,9.1h-6.73a9.1,9.1,0,0,1-9.1-9.1V42.85A0,0,0,0,1,132.35,42.85Z"/><line class="cls-1" x1="144.82" y1="42.85" x2="144.82" y2="108.52"/><rect class="cls-1" x="45.07" y="11.68" width="36.37" height="36.37" rx="5.78" ry="5.78"/><rect class="cls-1" x="92.04" y="71.96" width="32.58" height="24.5" rx="5.78" ry="5.78"/><line class="cls-1" x1="92.04" y1="11.68" x2="124.62" y2="11.68"/><line class="cls-1" x1="92.04" y1="23.32" x2="124.62" y2="23.32"/><line class="cls-1" x1="92.04" y1="34.96" x2="124.62" y2="34.96"/><line class="cls-1" x1="92.04" y1="46.59" x2="124.62" y2="46.59"/><line class="cls-1" x1="43.59" y1="58.23" x2="124.62" y2="58.23"/><line class="cls-1" x1="43.59" y1="71.96" x2="84.1" y2="71.96"/><line class="cls-1" x1="43" y1="84.2" x2="83.51" y2="84.2"/><line class="cls-1" x1="42.4" y1="96.45" x2="82.91" y2="96.45"/><line class="cls-1" x1="41.81" y1="108.7" x2="124.62" y2="108.7"/></svg>