<?xml version="1.0" encoding="utf-8"?>
<!-- Generator: Adobe Illustrator 20.1.0, SVG Export Plug-In . SVG Version: 6.00 Build 0)  -->
<svg version="1.1" id="Layer_1" xmlns="http://www.w3.org/2000/svg" xmlns:xlink="http://www.w3.org/1999/xlink" x="0px" y="0px"
	 viewBox="0 0 41.2 21.7" style="enable-background:new 0 0 41.2 21.7;" xml:space="preserve">
<style type="text/css">
	.st0{fill:#FFFFFF;}
</style>
<title>member</title>
<g>
	<path class="st0" d="M12.1,1c2.1,0,3.8,1.7,3.8,3.8s-1.7,3.8-3.8,3.8S8.3,6.9,8.3,4.8S10,1,12.1,1 M12.1,0C9.5,0,7.3,2.2,7.3,4.8
		s2.2,4.8,4.8,4.8s4.8-2.2,4.8-4.8S14.8,0,12.1,0L12.1,0z"/>
</g>
<g>
	<path class="st0" d="M12.1,14.3c5.6,0,10.3,2.8,11,6.4H1.1C1.8,17.1,6.5,14.3,12.1,14.3 M12.1,13.3C5.4,13.3,0,17.1,0,21.7h24.3
		C24.3,17.1,18.8,13.3,12.1,13.3L12.1,13.3z"/>
</g>
<g>
	<path class="st0" d="M38.8,9.1l-3.4,3.4l-3.4-3.4H38.8 M41.2,8.1H29.5l5.8,5.8L41.2,8.1L41.2,8.1z"/>
</g>
</svg>
