<svg id="Layer_1" data-name="Layer 1" xmlns="http://www.w3.org/2000/svg" viewBox="0 0 193.21 125.4"><defs><style>.cls-1{fill:none;stroke:#fff;stroke-linecap:round;stroke-linejoin:round;stroke-width:3px;}</style></defs><title>memberpage-icon</title><polygon class="cls-1" points="105.03 51.12 17.87 24.41 104.06 1.5 191.71 24.41 105.03 51.12"/><line class="cls-1" x1="66.21" y1="52.91" x2="66.21" y2="39.83"/><path class="cls-1" d="M143.86,39.83v41.7s-29.73,3.68-37.16,17.23a1.89,1.89,0,0,1-3.34,0C100.19,93,92.92,89,85.64,86.3"/><line class="cls-1" x1="176.39" y1="29.45" x2="176.39" y2="92.83"/><path class="cls-1" d="M51.14,111.78H11.35a9.85,9.85,0,0,1-9.85-9.85V63.83A9.85,9.85,0,0,1,11.35,54H74.91a9.85,9.85,0,0,1,9.85,9.85v38.09a9.85,9.85,0,0,1-9.85,9.85H67.5"/><polyline class="cls-1" points="67.01 100.15 67.01 123.9 59.26 116.94 51.51 123.9 51.51 99.88"/><polygon class="cls-1" points="54.43 75.14 59.41 70.89 64.4 75.14 70.93 75.66 71.45 82.19 75.7 87.17 71.45 92.16 70.93 98.69 64.4 99.21 59.41 103.46 54.43 99.21 47.9 98.69 47.37 92.16 43.12 87.17 47.37 82.19 47.9 75.66 54.43 75.14"/><line class="cls-1" x1="17.87" y1="68.92" x2="32.1" y2="68.92"/><line class="cls-1" x1="17.87" y1="79.23" x2="45.31" y2="79.23"/><line class="cls-1" x1="17.87" y1="89.53" x2="45.31" y2="89.53"/></svg>