<svg id="Layer_1" data-name="Layer 1" xmlns="http://www.w3.org/2000/svg" viewBox="0 0 26.75 26.75"><defs><style>.cls-1{fill:#818181;}</style></defs><title>social</title><path class="cls-1" d="M20.69.18H6.06A5.88,5.88,0,0,0,.18,6.06V20.69a5.88,5.88,0,0,0,5.88,5.88H20.69a5.88,5.88,0,0,0,5.88-5.88V6.06A5.88,5.88,0,0,0,20.69.18Zm1.23,16.26a2.9,2.9,0,0,1-2.9,2.9H7.73a2.9,2.9,0,0,1-2.9-2.9V10.32a2.9,2.9,0,0,1,2.9-2.9H19a2.9,2.9,0,0,1,2.9,2.9Z"/><polygon class="cls-1" points="11.71 16.43 16.48 13.36 11.71 10.29 11.71 16.43"/></svg>