<?xml version="1.0" encoding="utf-8"?>
<!-- Generator: Adobe Illustrator 21.0.0, SVG Export Plug-In . SVG Version: 6.00 Build 0)  -->
<svg version="1.1" id="Layer_1" xmlns="http://www.w3.org/2000/svg" xmlns:xlink="http://www.w3.org/1999/xlink" x="0px" y="0px"
	 viewBox="0 0 149.5 125.4" style="enable-background:new 0 0 149.5 125.4;" xml:space="preserve">
<style type="text/css">
	.st0{fill:none;stroke:#00447B;stroke-width:3;stroke-linecap:round;stroke-linejoin:round;}
</style>
<title>whowehelp-icon</title>
<path class="st0" d="M137.9,11.6c-13.4-13.5-35.2-13.5-48.7-0.1c0,0-0.1,0.1-0.1,0.1l-14,14.1l-0.4,0.4L60.4,11.6
	C46.9-1.8,25.2-1.9,11.7,11.5c0,0-0.1,0.1-0.1,0.1l0,0C-1.9,25.2-1.9,47,11.6,60.5L26,75l48.8,48.9L123.5,75l14.4-14.4
	C151.4,47,151.4,25.2,137.9,11.6z"/>
<polyline class="st0" points="104.7,40 97.5,47.3 104.2,54 111.4,46.8 "/>
<polyline class="st0" points="118.2,40 126.4,31.8 119.6,25.1 111.4,33.3 "/>
<polygon class="st0" points="97.5,31.8 104.2,25.1 111.9,32.8 105.2,39.5 "/>
<polygon class="st0" points="111.9,46.3 118.7,39.5 126.3,47.3 119.6,54 "/>
<line class="st0" x1="111.4" y1="46.8" x2="118.2" y2="40"/>
<line class="st0" x1="111.4" y1="33.3" x2="104.7" y2="40"/>
</svg>
