<svg id="Layer_1" data-name="Layer 1" xmlns="http://www.w3.org/2000/svg" viewBox="0 0 193.21 125.4"><defs><style>.cls-1,.cls-2{fill:none;stroke:#fff;stroke-width:3px;}.cls-1{stroke-miterlimit:10;}.cls-2{stroke-linecap:round;stroke-linejoin:round;}</style></defs><title>memberpage-icon</title><path class="cls-1" d="M159.92,79a14.73,14.73,0,0,0,2.85-8.73v-53A15.71,15.71,0,0,0,147.07,1.5H47.95A17.5,17.5,0,0,0,30.44,19V67.72A17.35,17.35,0,0,0,47.75,85H58.36l-5.16,21.1a3,3,0,0,0,5,3L84.85,85H97.12"/><line class="cls-2" x1="59.92" y1="27.71" x2="97.13" y2="27.71"/><line class="cls-2" x1="59.92" y1="40.01" x2="133.29" y2="40.01"/><line class="cls-2" x1="59.92" y1="52.3" x2="133.29" y2="52.3"/><path class="cls-1" d="M104.62,72.52h47a8.3,8.3,0,0,1,8.3,8.3v23.1a8.23,8.23,0,0,1-8.2,8.2h-5l2.45,10a1.43,1.43,0,0,1-2.35,1.4l-12.65-11.41H104.19a7,7,0,0,1-7-7V80A7.45,7.45,0,0,1,104.62,72.52Z"/><line class="cls-2" x1="128.8" y1="84.95" x2="110.92" y2="84.95"/><line class="cls-2" x1="145.94" y1="96.6" x2="111.15" y2="96.6"/></svg>