<svg id="Layer_1" data-name="Layer 1" xmlns="http://www.w3.org/2000/svg" viewBox="0 0 95.92 78.72"><defs><style>.cls-1{fill:#fff;}.cls-2{fill:none;stroke:#fff;stroke-linecap:round;stroke-miterlimit:10;stroke-width:11px;}</style></defs><title>mobile-icon</title><path class="cls-1" d="M17.35,14.75A5.95,5.95,0,1,1,11.41,8.8a5.95,5.95,0,0,1,5.95,5.95"/><line class="cls-2" x1="29.79" y1="14.75" x2="90.46" y2="14.75"/><path class="cls-1" d="M17.35,39.36a5.95,5.95,0,1,1-5.95-5.95,5.95,5.95,0,0,1,5.95,5.95"/><line class="cls-2" x1="29.79" y1="39.36" x2="90.46" y2="39.36"/><path class="cls-1" d="M17.35,64A5.95,5.95,0,1,1,11.41,58,5.95,5.95,0,0,1,17.35,64"/><line class="cls-2" x1="29.79" y1="63.97" x2="90.46" y2="63.97"/></svg>