<svg id="Layer_1" data-name="Layer 1" xmlns="http://www.w3.org/2000/svg" viewBox="0 0 26.75 26.75"><defs><style>.cls-1{fill:#818181;}</style></defs><title>social</title><path id="twitter-icon" class="cls-1" d="M0,21.78a5.14,5.14,0,0,0,.64.07h.67A10.73,10.73,0,0,0,5,21.23,11.38,11.38,0,0,0,8.13,19.5a5.25,5.25,0,0,1-3.2-1.1A5.42,5.42,0,0,1,3,15.69a4.23,4.23,0,0,0,.5.08l.52,0a5.07,5.07,0,0,0,.74-.05l.72-.13a5.48,5.48,0,0,1-3.15-1.89,5.25,5.25,0,0,1-1.27-3.49v-.08a5,5,0,0,0,1.18.48,5.85,5.85,0,0,0,1.31.2A5.47,5.47,0,0,1,1.79,8.9a5.49,5.49,0,0,1-.47-4.08,5.8,5.8,0,0,1,.54-1.31A16.31,16.31,0,0,0,4.13,5.76,15.74,15.74,0,0,0,6.82,7.52a15.67,15.67,0,0,0,3,1.19,15,15,0,0,0,3.31.52q-.05-.29-.09-.6A5.27,5.27,0,0,1,13,8a5.35,5.35,0,0,1,.43-2.13,5.5,5.5,0,0,1,2.91-2.93,5.44,5.44,0,0,1,6.14,1.32,10.6,10.6,0,0,0,1.82-.52A12,12,0,0,0,26,2.91a5.55,5.55,0,0,1-.94,1.72,5.63,5.63,0,0,1-1.49,1.31,11.29,11.29,0,0,0,1.63-.33,12.18,12.18,0,0,0,1.53-.54,11.47,11.47,0,0,1-1.24,1.53A12.06,12.06,0,0,1,24,7.93q0,.16,0,.34t0,.37a15.92,15.92,0,0,1-1,5.5,15.67,15.67,0,0,1-3,5,15.57,15.57,0,0,1-4.9,3.67,15.08,15.08,0,0,1-6.7,1.42,15.19,15.19,0,0,1-2.27-.17A16.19,16.19,0,0,1,4,23.61a14.22,14.22,0,0,1-2.05-.78A18.31,18.31,0,0,1,0,21.78Z"/></svg>