<?xml version="1.0" encoding="utf-8"?>
<!-- Generator: Adobe Illustrator 21.0.0, SVG Export Plug-In . SVG Version: 6.00 Build 0)  -->
<svg version="1.1" id="Layer_1" xmlns="http://www.w3.org/2000/svg" xmlns:xlink="http://www.w3.org/1999/xlink" x="0px" y="0px"
	 viewBox="0 0 149.5 125.4" style="enable-background:new 0 0 149.5 125.4;" xml:space="preserve">
<style type="text/css">
	.st0{fill:none;stroke:#00447B;stroke-width:3;stroke-linecap:round;stroke-linejoin:round;}
</style>
<title>whowehelp-icon</title>
<path class="st0" d="M58.6,84.9c0,8.3-11.6,15-25.9,15s-25.9-6.8-25.9-15H58.6z"/>
<path class="st0" d="M24.8,30.4c0,0,7.9,11,20.5,0s29.5-6.3,29.5-6.3"/>
<polyline class="st0" points="12.1,84.9 32.7,47.4 53.4,84.9 "/>
<ellipse class="st0" cx="32.7" cy="41.3" rx="3.4" ry="6.1"/>
<path class="st0" d="M90.9,84.9c0,8.3,11.6,15,25.9,15s25.9-6.7,25.9-15H90.9z"/>
<path class="st0" d="M124.7,30.4c0,0-7.9,11-20.5,0s-29.5-6.3-29.5-6.3"/>
<polyline class="st0" points="137.5,84.9 116.8,47.4 96.1,84.9 "/>
<ellipse class="st0" cx="116.8" cy="41.3" rx="3.4" ry="6.1"/>
<ellipse class="st0" cx="74.7" cy="7.6" rx="3.4" ry="6.1"/>
<path class="st0" d="M113.3,123.9c0-4.9-17.3-8.8-38.6-8.8s-38.6,4-38.6,8.8H113.3z"/>
<ellipse class="st0" cx="74.7" cy="97.1" rx="8.5" ry="8.5"/>
<path class="st0" d="M66.2,97.1c0,0,2.2,14.9-19.2,20.7"/>
<path class="st0" d="M83.1,97.1c0,0-2.2,14.9,19.2,20.7"/>
<line class="st0" x1="78.5" y1="89.3" x2="78.5" y2="23.4"/>
<line class="st0" x1="70.9" y1="23.4" x2="70.9" y2="89.3"/>
<path class="st0" d="M70.2,23.2c-2-2.5-1.6-6.2,0.9-8.3s6.2-1.6,8.3,0.9c1.7,2.2,1.7,5.2,0,7.4"/>
</svg>
