<?xml version="1.0" encoding="utf-8"?>
<!-- Generator: Adobe Illustrator 21.0.0, SVG Export Plug-In . SVG Version: 6.00 Build 0)  -->
<svg version="1.1" id="Layer_1" xmlns="http://www.w3.org/2000/svg" xmlns:xlink="http://www.w3.org/1999/xlink" x="0px" y="0px"
	 viewBox="0 0 149.5 125.4" style="enable-background:new 0 0 149.5 125.4;" xml:space="preserve">
<style type="text/css">
	.st0{fill:none;stroke:#00447B;stroke-width:3;stroke-linecap:round;stroke-linejoin:round;}
</style>
<title>whowehelp-icon</title>
<ellipse class="st0" cx="74.1" cy="28.2" rx="26.7" ry="26.7"/>
<path class="st0" d="M69.4,85L53.6,62.5c-10.2,0-18.5,8.3-18.5,18.5c0,0,0,0,0,0v42.7h38.7"/>
<polygon class="st0" points="70.9,74.5 66.1,63.7 82.1,63.7 77.2,74.5 78.5,85.3 94.7,62.8 53.6,62.8 69.6,85.3 "/>
<path class="st0" d="M73.8,123.8h40.6V81.1c0-10.2-8.2-18.5-18.4-18.5c0,0,0,0,0,0h-1.3L78.4,85"/>
<polygon class="st0" points="70.9,74.7 69.6,85.4 74.1,91.5 78.5,85.5 77.2,74.7 "/>
<polyline class="st0" points="74.2,123.9 74.1,91.4 69.6,85.2 "/>
<polyline class="st0" points="78.5,85.2 74.1,91.4 74.2,123.9 "/>
<polygon class="st0" points="82.1,63.7 66.1,63.7 70.9,74.7 77.2,74.7 "/>
<path class="st0" d="M54.8,104.6L54.8,104.6c-4.1,0-7.4-3.3-7.3-7.4l0,0v-7.4h14.7v7.4C62.1,101.3,58.8,104.6,54.8,104.6L54.8,104.6
	z"/>
</svg>
