<svg id="Layer_1" data-name="Layer 1" xmlns="http://www.w3.org/2000/svg" viewBox="0 0 217.32 58.75"><defs><style>.cls-1{fill:#15467a;}.cls-2{fill:#b8922f;}</style></defs><title>logo</title><path class="cls-1" d="M58.83,5.53C35.51,6.28,14.65,14.1,0,26.19H16.93C25.93,15.62,41,7.93,58.83,5.53"/><path class="cls-2" d="M79.38,0A121.26,121.26,0,0,0,44.55,5,98.63,98.63,0,0,1,61.74,3.52c24.56,0,46.36,8.9,60.07,22.67h30.53C135.24,10.23,108.91,0,79.38,0"/><path class="cls-1" d="M24.07,39.32v.5c0,1.08.31,1.9,1.5,1.9A1.5,1.5,0,0,0,27.12,40c0-3.08-6.3-1.36-6.3-6.71,0-2.28,1.25-4.21,4.8-4.21S30.3,30.81,30.3,33v.34H27a2.87,2.87,0,0,0-.29-1.5,1.09,1.09,0,0,0-1-.5c-.86,0-1.38.5-1.38,1.54,0,3,6.3,1.48,6.3,6.53,0,3.25-1.85,4.55-5,4.55-2.5,0-4.82-.74-4.82-3.73v-.92Z"/><path class="cls-1" d="M32.52,35.1H31.14V32.85h1.38V29.67h3.32v3.19h1.54V35.1H35.84v5.47c0,.76.29,1,1.07,1a3.67,3.67,0,0,0,.47,0v2.16a15.36,15.36,0,0,1-1.91.12c-2.3,0-3-.4-3-2.92Z"/><path class="cls-1" d="M38.55,32.85h3.2v1.52h0a2.83,2.83,0,0,1,2.67-1.8,2.61,2.61,0,0,1,.53,0v3a4.88,4.88,0,0,0-.92-.08c-1.33,0-2.19.54-2.19,2v6.15H38.55Z"/><path class="cls-1" d="M54.94,43.69h-3.2V42.41h0A2.85,2.85,0,0,1,49,44c-1.89,0-2.89-.92-2.89-3V32.85h3.32v7.39c0,.78.35,1.24,1,1.24s1.19-.48,1.19-1.54V32.85h3.32Z"/><path class="cls-1" d="M62.24,36.94c0-1.58-.37-2.24-1.25-2.24-1.11,0-1.25,1.36-1.25,3.59,0,2.44.14,3.57,1.25,3.57s1.21-.66,1.25-2.56h3.08c0,3.34-1.37,4.69-4.39,4.69-4.18,0-4.51-2.86-4.51-6.09,0-3,.9-5.31,4.51-5.31s4.39,1.78,4.39,4.37Z"/><path class="cls-1" d="M67.08,35.1H65.71V32.85h1.38V29.67h3.32v3.19h1.54V35.1H70.41v5.47c0,.76.29,1,1.07,1a3.69,3.69,0,0,0,.47,0v2.16a15.36,15.36,0,0,1-1.91.12c-2.3,0-3-.4-3-2.92Z"/><path class="cls-1" d="M81.91,43.69h-3.2V42.41h0A2.85,2.85,0,0,1,76,44c-1.89,0-2.89-.92-2.89-3V32.85h3.32v7.39c0,.78.35,1.24,1,1.24s1.19-.48,1.19-1.54V32.85h3.32Z"/><path class="cls-1" d="M83.76,32.85H87v1.52h0a2.83,2.83,0,0,1,2.67-1.8,2.61,2.61,0,0,1,.53,0v3a4.88,4.88,0,0,0-.92-.08c-1.33,0-2.19.54-2.19,2v6.15H83.76Z"/><path class="cls-1" d="M94.06,38.8v.66c0,1.68.25,2.5,1.21,2.5s1.13-.62,1.21-2h3.08c-.06,2.68-1.56,4-4.31,4-4.19,0-4.51-2.86-4.51-6.09,0-3,.9-5.31,4.51-5.31,4.12,0,4.41,2.54,4.41,6.23Zm2.4-1.88c0-1.52-.21-2.34-1.13-2.34-1.09,0-1.27.88-1.27,2.34Z"/><path class="cls-1" d="M106.57,42.37h0a2.34,2.34,0,0,1-2.4,1.6c-2.24,0-3.43-1.56-3.43-5.61,0-3.36.49-5.79,3.22-5.79A2.54,2.54,0,0,1,106.41,34h0V29.39h3.32v14.3h-3.2Zm-1.27-7.43c-1.21,0-1.27,1.3-1.27,3.26,0,1.74,0,3.41,1.29,3.41,1,0,1.19-1.16,1.19-3.27,0-1.92-.08-3.4-1.21-3.4"/><path class="cls-1" d="M119.95,39.32v.5c0,1.08.31,1.9,1.5,1.9A1.5,1.5,0,0,0,123,40c0-3.08-6.3-1.36-6.3-6.71,0-2.28,1.25-4.21,4.8-4.21s4.68,1.7,4.68,3.91v.34h-3.32a2.87,2.87,0,0,0-.29-1.5,1.09,1.09,0,0,0-1-.5c-.86,0-1.37.5-1.37,1.54,0,3,6.3,1.48,6.3,6.53,0,3.25-1.85,4.55-5,4.55-2.5,0-4.82-.74-4.82-3.73v-.92Z"/><path class="cls-1" d="M130.92,38.8v.66c0,1.68.25,2.5,1.21,2.5s1.13-.62,1.21-2h3.08c-.06,2.68-1.56,4-4.31,4-4.19,0-4.51-2.86-4.51-6.09,0-3,.9-5.31,4.51-5.31,4.12,0,4.41,2.54,4.41,6.23Zm2.4-1.88c0-1.52-.21-2.34-1.13-2.34-1.09,0-1.27.88-1.27,2.34Z"/><path class="cls-1" d="M138.26,35.1h-1.38V32.85h1.38V29.67h3.32v3.19h1.54V35.1h-1.54v5.47c0,.76.29,1,1.07,1a3.67,3.67,0,0,0,.47,0v2.16a15.36,15.36,0,0,1-1.91.12c-2.3,0-3-.4-3-2.92Z"/><path class="cls-1" d="M144.72,35.1h-1.37V32.85h1.37V29.67H148v3.19h1.54V35.1H148v5.47c0,.76.29,1,1.07,1a3.67,3.67,0,0,0,.47,0v2.16a15.33,15.33,0,0,1-1.91.12c-2.3,0-3-.4-3-2.92Z"/><rect class="cls-1" x="150.84" y="29.39" width="3.32" height="14.3"/><path class="cls-1" d="M159,38.8v.66c0,1.68.25,2.5,1.21,2.5s1.13-.62,1.21-2h3.08c-.06,2.68-1.56,4-4.31,4-4.18,0-4.51-2.86-4.51-6.09,0-3,.9-5.31,4.51-5.31,4.12,0,4.41,2.54,4.41,6.23Zm2.4-1.88c0-1.52-.2-2.34-1.13-2.34-1.09,0-1.27.88-1.27,2.34Z"/><path class="cls-1" d="M166.06,32.85h3.2v1.28h0A2.85,2.85,0,0,1,172,32.57a2.52,2.52,0,0,1,2.73,1.66,2.86,2.86,0,0,1,2.75-1.66c1.89,0,2.89.92,2.89,3v8.11H177V36.3c0-.78-.35-1.24-1-1.24s-1.19.48-1.19,1.54v7.09h-3.32V36.3c0-.78-.35-1.24-1-1.24s-1.19.48-1.19,1.54v7.09h-3.32Z"/><path class="cls-1" d="M185.24,38.8v.66c0,1.68.25,2.5,1.21,2.5s1.13-.62,1.21-2h3.08c-.06,2.68-1.56,4-4.31,4-4.18,0-4.51-2.86-4.51-6.09,0-3,.9-5.31,4.51-5.31,4.12,0,4.41,2.54,4.41,6.23Zm2.4-1.88c0-1.52-.2-2.34-1.13-2.34-1.09,0-1.27.88-1.27,2.34Z"/><path class="cls-1" d="M192.15,32.85h3.2v1.28h0a2.85,2.85,0,0,1,2.67-1.56c1.89,0,2.89.92,2.89,3v8.11h-3.32V36.3c0-.78-.35-1.24-1-1.24s-1.19.48-1.19,1.54v7.09h-3.32Z"/><path class="cls-1" d="M203.23,35.1h-1.38V32.85h1.38V29.67h3.32v3.19h1.54V35.1h-1.54v5.47c0,.76.29,1,1.07,1a3.69,3.69,0,0,0,.47,0v2.16a15.36,15.36,0,0,1-1.91.12c-2.3,0-3-.4-3-2.92Z"/><path class="cls-1" d="M211.8,40.24a3,3,0,0,0,.23,1.22,1.09,1.09,0,0,0,1,.5,1.07,1.07,0,0,0,1.19-1.1c0-.5-.25-1-1.27-1.32-2.73-.9-4-1.42-4-3.71s1.56-3.26,4.23-3.26c3.12,0,4,1.48,4,3V36h-3v-.2c0-.94-.39-1.2-1.09-1.2-.88,0-1.13.42-1.13,1,0,1.92,5.31.64,5.31,4.85,0,2.18-1.5,3.55-4.25,3.55-3,0-4.23-1.08-4.23-3.25v-.48Z"/><polygon class="cls-1" points="43.9 15.71 45.06 15.71 51.42 24.73 51.45 24.73 51.45 15.71 52.49 15.71 52.49 26.38 51.33 26.38 44.97 17.35 44.94 17.35 44.94 26.38 43.9 26.38 43.9 15.71"/><path class="cls-1" d="M54.41,21c.09-1.81,1.39-2.58,3.2-2.58,1.39,0,2.91.42,2.91,2.48V25a.51.51,0,0,0,.57.57.92.92,0,0,0,.31-.06v.79a2.76,2.76,0,0,1-.63.06c-1,0-1.13-.54-1.13-1.34h0a3,3,0,0,1-2.88,1.57c-1.45,0-2.65-.7-2.65-2.25,0-2.17,2.16-2.24,4.24-2.48.8-.09,1.24-.19,1.24-1,0-1.27-.93-1.58-2.07-1.58s-2.08.54-2.11,1.79Zm5.14,1.13h0c-.12.22-.55.3-.81.34-1.64.28-3.67.27-3.67,1.78a1.63,1.63,0,0,0,1.76,1.52,2.51,2.51,0,0,0,2.75-2.42Z"/><path class="cls-1" d="M64,18.67h1.61v.79H64v5.2c0,.61.09,1,.78,1a7.54,7.54,0,0,0,.83,0v.81c-.29,0-.57,0-.86,0C63.43,26.46,63,26,63,24.73V19.46H61.63v-.79H63V16.35h1Z"/><path class="cls-1" d="M67,15.71h1v1.51H67Zm0,3h1v7.71H67Z"/><path class="cls-1" d="M76.87,22.52c0,2.21-1.32,4.08-3.73,4.08s-3.73-1.87-3.73-4.08,1.31-4.08,3.73-4.08,3.73,1.87,3.73,4.08m-6.5,0c0,1.64.92,3.29,2.77,3.29s2.77-1.64,2.77-3.29-.92-3.29-2.77-3.29-2.77,1.64-2.77,3.29"/><path class="cls-1" d="M78.29,18.67h1V20h0a2.68,2.68,0,0,1,2.52-1.55c2.22,0,2.89,1.13,2.89,3v5h-1V21.57c0-1.33-.44-2.33-2-2.33a2.46,2.46,0,0,0-2.48,2.64v4.5h-1Z"/><path class="cls-1" d="M86.43,21c.09-1.81,1.39-2.58,3.2-2.58,1.39,0,2.91.42,2.91,2.48V25a.51.51,0,0,0,.57.57.92.92,0,0,0,.31-.06v.79a2.76,2.76,0,0,1-.63.06c-1,0-1.13-.54-1.13-1.34h0a3,3,0,0,1-2.88,1.57c-1.45,0-2.65-.7-2.65-2.25,0-2.17,2.16-2.24,4.24-2.48.8-.09,1.24-.19,1.24-1,0-1.27-.93-1.58-2.07-1.58s-2.08.54-2.11,1.79Zm5.14,1.13h0c-.12.22-.55.3-.81.34-1.64.28-3.67.27-3.67,1.78a1.63,1.63,0,0,0,1.76,1.52,2.51,2.51,0,0,0,2.75-2.42Z"/><rect class="cls-1" x="94.47" y="15.71" width="0.96" height="10.66"/><polygon class="cls-1" points="91.54 47.86 100.2 47.86 100.2 48.73 96.39 48.73 96.39 58.52 95.35 58.52 95.35 48.73 91.54 48.73 91.54 47.86"/><path class="cls-1" d="M99.64,50.82h.89v1.81h0a2.92,2.92,0,0,1,3-1.91v.94a2.69,2.69,0,0,0-2.94,2.76v4.11h-1Z"/><path class="cls-1" d="M104.37,53.18c.09-1.81,1.39-2.58,3.2-2.58,1.39,0,2.91.42,2.91,2.48v4.09a.51.51,0,0,0,.57.57.92.92,0,0,0,.31-.06v.79a2.76,2.76,0,0,1-.63.06c-1,0-1.13-.54-1.13-1.34h0a3,3,0,0,1-2.87,1.57c-1.45,0-2.65-.7-2.65-2.25,0-2.17,2.16-2.24,4.24-2.48.8-.09,1.24-.19,1.24-1,0-1.27-.93-1.58-2.07-1.58s-2.08.54-2.11,1.79Zm5.14,1.13h0c-.12.22-.55.3-.81.34-1.64.28-3.67.27-3.67,1.78A1.63,1.63,0,0,0,106.75,58a2.52,2.52,0,0,0,2.75-2.42Z"/><path class="cls-1" d="M119.34,58.52h-.89V57.06h0a3.14,3.14,0,0,1-2.81,1.69c-2.4,0-3.55-1.9-3.55-4.08s1.15-4.08,3.55-4.08a2.82,2.82,0,0,1,2.74,1.69h0V47.86h1ZM115.61,58c2.05,0,2.77-1.69,2.77-3.29s-.72-3.29-2.77-3.29c-1.84,0-2.59,1.69-2.59,3.29s.75,3.29,2.59,3.29"/><path class="cls-1" d="M121.75,54.92c0,1.37.75,3,2.6,3a2.39,2.39,0,0,0,2.48-2h1a3.2,3.2,0,0,1-3.44,2.76c-2.51,0-3.57-1.88-3.57-4.08,0-2,1.06-4.08,3.57-4.08s3.55,2.17,3.47,4.33Zm5.11-.79a2.61,2.61,0,0,0-2.51-2.75,2.76,2.76,0,0,0-2.6,2.75Z"/><path class="cls-1" d="M136.75,47.86h1.16l4.28,10.66h-1.12l-1.33-3.32h-5l-1.32,3.32h-1.12Zm-1.65,6.48h4.3l-2.11-5.47Z"/><path class="cls-1" d="M147.74,53.07c0-1.17-1-1.69-2.07-1.69-.86,0-1.87.33-1.87,1.33,0,.84,1,1.13,1.64,1.3l1.28.28c1.1.16,2.25.79,2.25,2.14,0,1.67-1.7,2.32-3.17,2.32-1.83,0-3.09-.84-3.24-2.72h1A2.07,2.07,0,0,0,145.86,58c.9,0,2.16-.39,2.16-1.46,0-.9-.86-1.2-1.73-1.4L145,54.82c-1.25-.33-2.2-.75-2.2-2.06,0-1.57,1.58-2.17,3-2.17,1.58,0,2.83.81,2.89,2.48Z"/><path class="cls-1" d="M155.1,53.07c0-1.17-1-1.69-2.07-1.69-.86,0-1.87.33-1.87,1.33,0,.84,1,1.13,1.64,1.3l1.29.28c1.1.16,2.25.79,2.25,2.14,0,1.67-1.7,2.32-3.17,2.32-1.84,0-3.09-.84-3.24-2.72h1A2.07,2.07,0,0,0,153.22,58c.9,0,2.16-.39,2.16-1.46,0-.9-.86-1.2-1.73-1.4l-1.24-.27c-1.25-.33-2.2-.75-2.2-2.06,0-1.57,1.58-2.17,3-2.17,1.58,0,2.83.81,2.89,2.48Z"/><path class="cls-1" d="M164.8,54.67c0,2.21-1.32,4.08-3.73,4.08s-3.73-1.87-3.73-4.08,1.31-4.08,3.73-4.08,3.73,1.87,3.73,4.08m-6.5,0c0,1.64.92,3.29,2.77,3.29s2.77-1.64,2.77-3.29-.92-3.29-2.77-3.29S158.3,53,158.3,54.67"/><path class="cls-1" d="M171.8,53.24a2.13,2.13,0,0,0-2.23-1.85c-1.85,0-2.77,1.64-2.77,3.29s.92,3.29,2.77,3.29a2.33,2.33,0,0,0,2.3-2.2h1a3.18,3.18,0,0,1-3.26,3c-2.42,0-3.73-1.87-3.73-4.08s1.31-4.08,3.73-4.08a2.93,2.93,0,0,1,3.2,2.64Z"/><path class="cls-1" d="M174.19,47.86h1v1.51h-1Zm0,3h1v7.71h-1Z"/><path class="cls-1" d="M176.91,53.18c.09-1.81,1.39-2.58,3.2-2.58,1.39,0,2.91.42,2.91,2.48v4.09a.51.51,0,0,0,.57.57.92.92,0,0,0,.31-.06v.79a2.76,2.76,0,0,1-.63.06c-1,0-1.13-.54-1.13-1.34h0a3,3,0,0,1-2.88,1.57c-1.45,0-2.65-.7-2.65-2.25,0-2.17,2.16-2.24,4.24-2.48.8-.09,1.24-.19,1.24-1,0-1.27-.93-1.58-2.07-1.58s-2.08.54-2.11,1.79Zm5.14,1.13h0c-.12.22-.55.3-.81.34-1.64.28-3.67.27-3.67,1.78A1.63,1.63,0,0,0,179.3,58a2.52,2.52,0,0,0,2.75-2.42Z"/><path class="cls-1" d="M186.48,50.82h1.61v.79h-1.61v5.2c0,.61.09,1,.78,1a7.54,7.54,0,0,0,.82,0v.81c-.29,0-.57,0-.86,0-1.28,0-1.73-.42-1.71-1.73V51.61h-1.38v-.79h1.38V48.5h1Z"/><path class="cls-1" d="M189.49,47.86h1v1.51h-1Zm0,3h1v7.71h-1Z"/><path class="cls-1" d="M199.37,54.67c0,2.21-1.32,4.08-3.73,4.08s-3.73-1.87-3.73-4.08,1.31-4.08,3.73-4.08,3.73,1.87,3.73,4.08m-6.5,0c0,1.64.92,3.29,2.77,3.29s2.77-1.64,2.77-3.29-.92-3.29-2.77-3.29-2.77,1.64-2.77,3.29"/><path class="cls-1" d="M200.8,50.82h1v1.33h0a2.68,2.68,0,0,1,2.52-1.55c2.22,0,2.89,1.13,2.89,3v5h-1V53.71c0-1.33-.44-2.33-2-2.33A2.46,2.46,0,0,0,201.76,54v4.5h-1Z"/></svg>